#tb 0: 1/15
#media_type 0: video
#codec_id 0: rawvideo
#dimensions 0: 162x130
#sar 0: 0/1
0,          0,          0,        1,    63180, 0xcda82c16
0,          1,          1,        1,    63180, 0xa6097bf9
0,          2,          2,        1,    63180, 0x4c2fb091
0,          3,          3,        1,    63180, 0xc597db00
0,          4,          4,        1,    63180, 0xfa581ccd
0,          5,          5,        1,    63180, 0x3e51498f
0,          6,          6,        1,    63180, 0xe3495396
0,          7,          7,        1,    63180, 0x425f5f02
0,          8,          8,        1,    63180, 0x6077465f
0,          9,          9,        1,    63180, 0x923ba29c
